<svg width="30" height="24" viewBox="0 0 30 24" fill="none" xmlns="http://www.w3.org/2000/svg">
<path fill-rule="evenodd" clip-rule="evenodd" d="M13 12C14.93 12 16.5 10.43 16.5 8.5C16.5 6.57 14.93 5 13 5C11.07 5 9.5 6.57 9.5 8.5C9.5 10.43 11.07 12 13 12ZM6 17.25C6 14.92 10.66 13.75 13 13.75C15.34 13.75 20 14.92 20 17.25L20 19H6L6 17.25ZM13 15.75C11.21 15.75 9.18 16.42 8.34 17H17.66C16.82 16.42 14.79 15.75 13 15.75ZM14.5 8.5C14.5 7.67 13.83 7 13 7C12.17 7 11.5 7.67 11.5 8.5C11.5 9.33 12.17 10 13 10C13.83 10 14.5 9.33 14.5 8.5ZM20.04 13.81C21.2 14.65 22 15.77 22 17.25L22 19H26L26 17.25C26 15.23 22.5 14.08 20.04 13.81ZM22.5 8.5C22.5 10.43 20.93 12 19 12C18.46 12 17.96 11.87 17.5 11.65C18.13 10.76 18.5 9.67 18.5 8.5C18.5 7.33 18.13 6.24 17.5 5.35C17.96 5.13 18.46 5 19 5C20.93 5 22.5 6.57 22.5 8.5Z" fill="#274D70"/>
<path d="M5 15L5 12H8L8 10H5L5 7L3 7L3 10H2.0704e-08L3.45066e-08 12H3L3 15H5Z" fill="#274D70"/>
</svg>
