<svg width="20" height="20" viewBox="0 0 20 20" fill="none" xmlns="http://www.w3.org/2000/svg">
<path d="M20 10C20 15.5228 15.5228 20 10 20C4.47778 20 0 15.5228 0 10C0 4.47778 4.47778 0 10 0C15.5228 0 20 4.47778 20 10Z" fill="#FCD754"/>
<path d="M9.99999 18.3333C11.5341 18.3333 12.7778 16.841 12.7778 15C12.7778 13.1591 11.5341 11.6667 9.99999 11.6667C8.46587 11.6667 7.22221 13.1591 7.22221 15C7.22221 16.841 8.46587 18.3333 9.99999 18.3333Z" fill="#502C0D"/>
<path d="M3.33279 6.11111C3.21723 6.11111 3.10001 6.075 3.00001 6C2.75446 5.81611 2.70501 5.46777 2.8889 5.22222C4.70112 2.80555 7.12001 2.77777 7.22223 2.77777C7.5289 2.77777 7.77779 3.02666 7.77779 3.33333C7.77779 3.63944 7.53057 3.88777 7.22446 3.88888C7.13834 3.89 5.24223 3.93666 3.77779 5.88889C3.6689 6.03444 3.50168 6.11111 3.33279 6.11111ZM16.6672 6.11111C16.4978 6.11111 16.3317 6.03444 16.2222 5.88889C14.7556 3.93277 12.855 3.89 12.7745 3.88888C12.4689 3.88555 12.2222 3.63555 12.2239 3.33055C12.2256 3.02444 12.4722 2.77777 12.7778 2.77777C12.88 2.77777 15.2983 2.80555 17.1111 5.22222C17.2956 5.46777 17.2456 5.81611 17 6C16.9 6.075 16.7833 6.11111 16.6672 6.11111Z" fill="#502C0D"/>
<path d="M9.99999 12.7778C9.07944 12.7778 8.33333 13.7722 8.33333 15H11.6667C11.6667 13.7722 10.9206 12.7778 9.99999 12.7778Z" fill="#F5F8FA"/>
<path d="M6.66668 10C7.43374 10 8.05556 9.12944 8.05556 8.05555C8.05556 6.98166 7.43374 6.11111 6.66668 6.11111C5.89961 6.11111 5.27779 6.98166 5.27779 8.05555C5.27779 9.12944 5.89961 10 6.66668 10Z" fill="#502C0D"/>
<path d="M13.3333 10C14.1004 10 14.7222 9.12944 14.7222 8.05555C14.7222 6.98166 14.1004 6.11111 13.3333 6.11111C12.5663 6.11111 11.9445 6.98166 11.9445 8.05555C11.9445 9.12944 12.5663 10 13.3333 10Z" fill="#502C0D"/>
</svg>
