<svg width="16" height="4" viewBox="0 0 16 4" fill="none" xmlns="http://www.w3.org/2000/svg">
<path fill-rule="evenodd" clip-rule="evenodd" d="M14 4C15.1 4 16 3.1 16 2C16 0.9 15.1 -7.86805e-08 14 -1.74846e-07C12.9 -2.71011e-07 12 0.9 12 2C12 3.1 12.9 4 14 4ZM2 4C3.1 4 4 3.1 4 2C4 0.899999 3.1 -1.12775e-06 2 -1.22392e-06C0.9 -1.32008e-06 2.71011e-07 0.899999 1.74846e-07 2C7.86805e-08 3.1 0.9 4 2 4ZM10 2C10 3.1 9.1 4 8 4C6.9 4 6 3.1 6 2C6 0.899999 6.9 -7.95547e-07 8 -6.99382e-07C9.1 -6.03217e-07 10 0.9 10 2Z" fill="#274D70"/>
</svg>
