<svg width="20" height="20" viewBox="0 0 20 20" fill="none" xmlns="http://www.w3.org/2000/svg">
<path d="M20 9.88562C20 9.6043 19.925 9.34031 19.7995 9.10037C18.9618 6.68084 15.0403 6.85757 9.46218 6.73956C8.52958 6.71999 9.06303 5.73394 9.39034 3.56945C9.60335 2.16169 8.58954 0 6.8855 0C4.07583 0 6.77869 1.9844 4.29446 6.89169C2.96708 9.51369 0 8.04497 0 10.6787V16.6738C0 17.699 0.112437 18.6845 1.72278 18.8467C3.28378 19.0039 2.93273 20 5.18458 20H16.4557C17.6038 20 18.5377 19.1633 18.5377 18.1353C18.5377 17.7091 18.3709 17.321 18.1017 17.0066C18.7388 16.6873 19.1761 16.0843 19.1761 15.3852C19.1761 14.9602 19.0099 14.572 18.7413 14.2582C19.3804 13.9394 19.8189 13.3359 19.8189 12.6357C19.8189 12.1273 19.589 11.6664 19.2186 11.3292C19.6914 10.9874 20 10.4707 20 9.88562Z" fill="#FCD754"/>
<path d="M12.5442 11.7498H17.9187C18.6495 11.7498 19.3354 11.3996 19.7089 10.8364C19.8626 10.6043 19.777 10.304 19.5171 10.1658C19.2579 10.0277 18.9225 10.1054 18.7682 10.3375C18.5914 10.6054 18.2647 10.771 17.918 10.771H12.4149C11.8696 10.771 11.4261 10.3739 11.4261 9.88562C11.4261 9.39735 11.8696 9.00024 12.4149 9.00024H16.0922C16.3939 9.00024 16.6388 8.781 16.6388 8.51086C16.6388 8.24071 16.3939 8.02147 16.0922 8.02147H12.4143C11.2662 8.02147 10.3323 8.85762 10.3323 9.88562C10.3323 10.4589 10.629 10.9662 11.085 11.3085C10.7009 11.6468 10.4616 12.1167 10.4616 12.6357C10.4616 13.2107 10.7602 13.7196 11.2187 14.0613C10.837 14.3992 10.6003 14.8673 10.6003 15.3852C10.6003 16.0116 10.9495 16.5642 11.4804 16.9026C11.1531 17.232 10.9482 17.661 10.9482 18.1353C10.9482 19.1633 11.8821 19.9994 13.0302 19.9994H16.4557C17.1866 19.9994 17.8731 19.6499 18.2466 19.0867C18.4009 18.8545 18.3153 18.5542 18.0561 18.4161C17.7962 18.279 17.4608 18.3545 17.3071 18.5866C17.1291 18.8545 16.8024 19.0207 16.4557 19.0207H13.0302C12.4848 19.0207 12.0413 18.6236 12.0413 18.1353C12.0413 17.647 12.4848 17.2499 13.0302 17.2499H17.0941C17.825 17.2499 18.5121 16.8998 18.885 16.3366C19.0393 16.1039 18.9537 15.8036 18.6945 15.666C18.4328 15.5256 18.0986 15.6045 17.9455 15.8366C17.765 16.1089 17.4464 16.2711 17.0941 16.2711H12.6822C12.1369 16.2711 11.6934 15.8735 11.6934 15.3852C11.6934 14.8969 12.1369 14.4998 12.6822 14.4998H17.7363C18.4671 14.4998 19.1536 14.1503 19.5271 13.5871C19.6814 13.355 19.5958 13.0546 19.3366 12.9165C19.0761 12.7789 18.7413 12.8549 18.5877 13.087C18.4071 13.3589 18.0886 13.5211 17.7363 13.5211H12.5442C11.9989 13.5211 11.5554 13.124 11.5554 12.6357C11.5554 12.1474 11.9982 11.7498 12.5442 11.7498Z" fill="#E19D18"/>
</svg>
