<svg width="25" height="24" viewBox="0 0 25 24" fill="none" xmlns="http://www.w3.org/2000/svg">
<path fill-rule="evenodd" clip-rule="evenodd" d="M8.12703 3.25C8.12703 4.35 9.04458 5.25 10.166 5.25C11.2875 5.25 12.205 4.35 12.205 3.25C12.205 2.15 11.2875 1.25 10.166 1.25C9.04458 1.25 8.12703 2.15 8.12703 3.25ZM12.8167 14.75L13.8362 19.15L20.9727 17.75L20.5649 15.75L15.5694 16.75L13.9382 8.65L15.7733 9.35L15.7733 12.75H17.8123L17.8123 8.05L12.5109 5.85C12.358 5.85 12.2305 5.825 12.1031 5.8C11.9756 5.775 11.8482 5.75 11.6953 5.75C10.9816 5.75 10.3699 6.15 9.96213 6.75L8.94263 8.35C8.12703 9.75 6.49583 10.75 4.55877 10.75L4.55877 12.75C6.80168 12.75 8.84068 11.75 10.166 10.25L10.7777 13.25L8.63678 15.25L8.63678 22.75H10.6758L10.6758 16.75L12.8167 14.75Z" fill="#274D70"/>
</svg>
