<svg width="20" height="20" viewBox="0 0 20 20" fill="none" xmlns="http://www.w3.org/2000/svg">
<path d="M10 18.8989C15.5228 18.8989 20 14.6683 20 9.44946C20 4.23067 15.5228 0 10 0C4.47715 0 0 4.23067 0 9.44946C0 14.6683 4.47715 18.8989 10 18.8989Z" fill="#FCD754"/>
<path d="M7.9553 11.6829C7.87 11.6184 7.80353 11.5306 7.77177 11.425C7.69295 11.1693 7.84824 10.9147 8.11883 10.8574C10.7824 10.2899 12.5759 11.6151 12.6518 11.6718C12.8777 11.8418 12.9218 12.1414 12.7535 12.3416C12.5853 12.5405 12.2665 12.5644 12.0412 12.3955C11.9765 12.3488 10.5571 11.3266 8.40471 11.7851C8.24353 11.8191 8.07883 11.7763 7.9553 11.6829Z" fill="#502C0D"/>
<path d="M7.12881 7.67741C7.81916 7.67741 8.37881 7.01643 8.37881 6.20107C8.37881 5.38571 7.81916 4.72473 7.12881 4.72473C6.43845 4.72473 5.87881 5.38571 5.87881 6.20107C5.87881 7.01643 6.43845 7.67741 7.12881 7.67741Z" fill="#502C0D"/>
<path d="M13.75 8.26772C14.4404 8.26772 15 7.60674 15 6.79138C15 5.97602 14.4404 5.31504 13.75 5.31504C13.0596 5.31504 12.5 5.97602 12.5 6.79138C12.5 7.60674 13.0596 8.26772 13.75 8.26772Z" fill="#502C0D"/>
<path d="M9.57414 19.5276C9.57414 19.5276 10.3183 19.2991 10.4147 18.7761C10.5165 18.2358 10.0477 18.1274 10.0477 18.1274C10.0477 18.1274 10.66 18.0118 10.7371 17.3625C10.8094 16.7506 10.2306 16.6049 10.2306 16.6049C10.2306 16.6049 10.8012 16.3826 10.8283 15.7495C10.8506 15.2164 10.243 14.9557 10.243 14.9557C10.243 14.9557 13.2065 14.277 13.5112 14.2103C13.8147 14.1436 14.2877 13.8685 14.14 13.2687C13.9936 12.6684 13.4318 12.6473 13.1418 12.7112C12.8512 12.7751 9.17473 13.5817 7.90649 13.8607L7.06002 14.0463C6.74237 14.1169 6.59826 13.9852 6.82237 13.7617C7.1212 13.4638 7.31237 13.1342 7.37884 12.5872C7.44884 12.0119 7.24237 11.3016 7.12414 11.0259C6.90414 10.5139 6.53296 10.1093 6.10414 9.97029C5.43532 9.75351 4.96002 10.1487 5.19708 10.838C5.55237 11.8685 5.31943 12.714 4.70708 13.2242C3.26649 14.4232 2.59649 15.2781 3.04237 17.1002C3.52943 19.0874 5.61708 20.3664 7.72002 19.9061L9.57414 19.5276Z" fill="#E19D18"/>
<path d="M4.88 3.5202C4.78353 3.47128 4.70176 3.39569 4.65 3.29841C4.52294 3.06051 4.62647 2.78314 4.88117 2.68031C7.39058 1.66255 9.41 2.65641 9.4947 2.69921C9.74941 2.82761 9.85235 3.11443 9.7247 3.34066C9.59764 3.56578 9.28941 3.64415 9.0347 3.51742C8.96235 3.4824 7.36882 2.72144 5.34176 3.54354C5.19058 3.60413 5.02 3.59079 4.88 3.5202ZM12.0182 5.60464C11.9265 5.55016 11.85 5.46957 11.8053 5.36896C11.6953 5.12327 11.8188 4.85368 12.0806 4.76642C14.6576 3.91263 16.6012 5.03322 16.6824 5.08158C16.9265 5.2261 17.0088 5.51904 16.8659 5.73637C16.7235 5.95316 16.4094 6.01152 16.1653 5.86867C16.0947 5.82865 14.5612 4.96763 12.4788 5.658C12.3224 5.70858 12.1535 5.68357 12.0182 5.60464Z" fill="#502C0D"/>
</svg>
