<svg width="22" height="11" viewBox="0 0 22 11" fill="none" xmlns="http://www.w3.org/2000/svg">
<path d="M5 1.5L16.5 1.5C18.71 1.5 20.5 3.29 20.5 5.5C20.5 7.71 18.71 9.5 16.5 9.5L4 9.5C2.62 9.5 1.5 8.38 1.5 7C1.5 5.62 2.62 4.5 4 4.5L14.5 4.5C15.05 4.5 15.5 4.95 15.5 5.5C15.5 6.05 15.05 6.5 14.5 6.5L5 6.5L5 8L14.5 8C15.88 8 17 6.88 17 5.5C17 4.12 15.88 3 14.5 3L4 3C1.79 3 0 4.79 0 7C0 9.21 1.79 11 4 11L16.5 11C19.54 11 22 8.54 22 5.5C22 2.46 19.54 3.57628e-07 16.5 3.57628e-07L5 3.57628e-07V1.5Z" fill="#274D70"/>
</svg>
