<svg width="18" height="18" viewBox="0 0 18 18" fill="none" xmlns="http://www.w3.org/2000/svg">
<path fill-rule="evenodd" clip-rule="evenodd" d="M8.991 0C4.023 0 0 4.032 0 9C0 13.968 4.023 18 8.991 18C13.968 18 18 13.968 18 9C18 4.032 13.968 0 8.991 0ZM5.85 5.4C5.10442 5.4 4.5 6.00442 4.5 6.75C4.5 7.49559 5.10442 8.1 5.85 8.1C6.59559 8.1 7.2 7.49558 7.2 6.75C7.2 6.00442 6.59559 5.4 5.85 5.4ZM12.15 5.4C11.4044 5.4 10.8 6.00442 10.8 6.75C10.8 7.49559 11.4044 8.1 12.15 8.1C12.8956 8.1 13.5 7.49558 13.5 6.75C13.5 6.00442 12.8956 5.4 12.15 5.4ZM5.89519 10.8C6.52519 11.871 7.66819 12.6 9.00019 12.6C10.3322 12.6 11.4752 11.871 12.1052 10.8H13.6082C12.8882 12.645 11.0972 13.95 9.00019 13.95C6.90319 13.95 5.11219 12.645 4.39219 10.8H5.89519ZM1.8 9C1.8 12.978 5.022 16.2 9 16.2C12.978 16.2 16.2 12.978 16.2 9C16.2 5.022 12.978 1.8 9 1.8C5.022 1.8 1.8 5.022 1.8 9Z" fill="#274D70"/>
</svg>
